<?xml version="1.0" encoding="UTF-8"?>
<svg width="105px" height="105px" viewBox="0 0 105 105" version="1.1" xmlns="http://www.w3.org/2000/svg" xmlns:xlink="http://www.w3.org/1999/xlink">
    <title>B5F16994-00A7-4217-8275-EDDC0AECC9A3</title>
    <defs>
        <linearGradient x1="50%" y1="5.61892033%" x2="64.8206889%" y2="88.6380171%" id="linearGradient-1">
            <stop stop-color="#A90718" stop-opacity="0.25737373" offset="0%"></stop>
            <stop stop-color="#A90718" offset="100%"></stop>
        </linearGradient>
        <filter x="-18.9%" y="-19.3%" width="137.8%" height="138.6%" filterUnits="objectBoundingBox" id="filter-2">
            <feGaussianBlur stdDeviation="3.63772455" in="SourceGraphic"></feGaussianBlur>
        </filter>
        <linearGradient x1="50%" y1="5.82087265%" x2="64.8206889%" y2="88.4621981%" id="linearGradient-3">
            <stop stop-color="#A90718" stop-opacity="0.25737373" offset="0%"></stop>
            <stop stop-color="#A90718" offset="100%"></stop>
        </linearGradient>
        <filter x="-15.1%" y="-15.4%" width="130.2%" height="130.9%" filterUnits="objectBoundingBox" id="filter-4">
            <feGaussianBlur stdDeviation="2.91017964" in="SourceGraphic"></feGaussianBlur>
        </filter>
        <linearGradient x1="50%" y1="5.88307792%" x2="64.8206889%" y2="88.4080424%" id="linearGradient-5">
            <stop stop-color="#A90718" stop-opacity="0.25737373" offset="0%"></stop>
            <stop stop-color="#A90718" offset="100%"></stop>
        </linearGradient>
        <filter x="-7.6%" y="-7.7%" width="115.1%" height="115.5%" filterUnits="objectBoundingBox" id="filter-6">
            <feGaussianBlur stdDeviation="1.45508982" in="SourceGraphic"></feGaussianBlur>
        </filter>
        <radialGradient cx="4.04652789%" cy="0%" fx="4.04652789%" fy="0%" r="99.4063133%" gradientTransform="translate(0.040465,0.000000),scale(0.883177,1.000000),rotate(45.939875),translate(-0.040465,-0.000000)" id="radialGradient-7">
            <stop stop-color="#FFB6B7" offset="0%"></stop>
            <stop stop-color="#FF7B80" offset="100%"></stop>
        </radialGradient>
        <path d="M58.9098538,12.6056814 C55.5975963,9.03946646 51.0527007,7.07535874 46.1114081,7.07535874 C42.4178871,7.07535874 39.0353326,8.23453608 36.0574741,10.5204221 C36.0574741,10.5204221 36.0574741,10.5204221 36.0574741,10.5204221 C33.6604114,12.3611289 30.3255798,12.3612771 27.9283536,10.5207833 C27.9282182,10.520651 27.9280691,10.5205365 27.9279201,10.5204221 C24.9505497,8.23453608 21.5679952,7.07535874 17.8744742,7.07535874 C12.9331816,7.07535874 8.38779784,9.03946646 5.07554027,12.6056814 C1.80282485,16.1302201 0,20.9452644 0,26.1644701 C0,31.5363266 2.01664493,36.4536227 6.34625603,41.6398751 C10.219425,46.2790074 15.7860678,50.9884077 22.2323994,56.4416779 C24.4335739,58.3040185 26.9286288,60.4149618 29.5193658,62.6635332 C30.2037852,63.2586293 31.0820094,63.5862229 31.9929412,63.5862229 C32.9033848,63.5862229 33.7820972,63.2586293 34.4655401,62.6645025 C37.0562771,60.4154464 39.5527967,58.3035339 41.7549474,56.4402241 C48.2003027,50.9879231 53.7669456,46.2790074 57.6401144,41.6393905 C61.9697257,36.4536227 63.9858823,31.5363266 63.9858823,26.1639855 C63.9858823,20.9452644 62.1830575,16.1302201 58.9098538,12.6056814 Z" id="path-8"></path>
        <path d="M58.9098538,12.6056814 C55.5975963,9.03946646 51.0527007,7.07535874 46.1114081,7.07535874 C42.4178871,7.07535874 39.0353326,8.23453608 36.0574741,10.5204221 C36.0574741,10.5204221 36.0574741,10.5204221 36.0574741,10.5204221 C33.6604114,12.3611289 30.3255798,12.3612771 27.9283536,10.5207833 C27.9282182,10.520651 27.9280691,10.5205365 27.9279201,10.5204221 C24.9505497,8.23453608 21.5679952,7.07535874 17.8744742,7.07535874 C12.9331816,7.07535874 8.38779784,9.03946646 5.07554027,12.6056814 C1.80282485,16.1302201 0,20.9452644 0,26.1644701 C0,31.5363266 2.01664493,36.4536227 6.34625603,41.6398751 C10.219425,46.2790074 15.7860678,50.9884077 22.2323994,56.4416779 C24.4335739,58.3040185 26.9286288,60.4149618 29.5193658,62.6635332 C30.2037852,63.2586293 31.0820094,63.5862229 31.9929412,63.5862229 C32.9033848,63.5862229 33.7820972,63.2586293 34.4655401,62.6645025 C37.0562771,60.4154464 39.5527967,58.3035339 41.7549474,56.4402241 C48.2003027,50.9879231 53.7669456,46.2790074 57.6401144,41.6393905 C61.9697257,36.4536227 63.9858823,31.5363266 63.9858823,26.1639855 C63.9858823,20.9452644 62.1830575,16.1302201 58.9098538,12.6056814 Z" id="path-10"></path>
        <filter x="-54.5%" y="-27.7%" width="209.1%" height="155.4%" filterUnits="objectBoundingBox" id="filter-12">
            <feGaussianBlur stdDeviation="4.94730539" in="SourceGraphic"></feGaussianBlur>
        </filter>
        <filter x="-30.9%" y="-24.0%" width="161.7%" height="147.9%" filterUnits="objectBoundingBox" id="filter-13">
            <feGaussianBlur stdDeviation="5.38383234" in="SourceGraphic"></feGaussianBlur>
        </filter>
        <filter x="-20.8%" y="-17.1%" width="141.7%" height="134.3%" filterUnits="objectBoundingBox" id="filter-14">
            <feGaussianBlur stdDeviation="2.91017964" in="SourceGraphic"></feGaussianBlur>
        </filter>
        <filter x="-29.7%" y="-43.3%" width="159.5%" height="186.6%" filterUnits="objectBoundingBox" id="filter-15">
            <feGaussianBlur stdDeviation="2.03712575" in="SourceGraphic"></feGaussianBlur>
        </filter>
    </defs>
    <g id="home-page" stroke="none" stroke-width="1" fill="none" fill-rule="evenodd">
        <g id="Home-(Small-Laptop)" transform="translate(-173.000000, -7957.000000)">
            <g id="Group-68" transform="translate(-576.750000, 0.000000)">
                <g id="Group-70" transform="translate(626.750000, 7909.000000)">
                    <g id="Illustration/Heart-Testimonials" transform="translate(130.750000, 62.415187)">
                        <path d="M68.4075105,14.7962762 C65.109013,11.2347124 60.574985,9.2805542 55.6396665,9.29390363 C51.9506111,9.30400201 48.5689752,10.4737764 45.588464,12.7705329 C44.7576754,13.4109583 43.6835401,14.4886718 42.3660583,16.0036735 L42.3634609,16.0014147 C41.7035366,16.7602346 40.9635997,17.4455731 40.1565179,18.045512 C36.5733315,20.7054023 34.3373949,21.6944843 33.4467102,21.01007 C30.4791926,18.729485 29.9172057,18.1141857 26.2281503,18.1242154 C21.2928318,18.1376335 23.7065642,14.5605393 20.3885558,18.140092 C17.1101558,21.6778104 15.8483708,23.4592785 15.8340937,28.6848408 C15.8193991,34.0632397 14.7723583,36.7877696 19.0825479,41.9685814 C22.9383439,46.6028462 25.8352876,49.5650122 32.2589082,55.0074191 C34.452327,56.8660506 34.9199912,57.5429335 37.501445,59.7872083 C38.183409,60.3811706 38.2538276,65.8866714 39.163658,65.8841986 C40.0730009,65.8817255 42.450216,65.2215293 44.8636133,63.5443166 C47.725473,61.5554408 48.9488505,60.602349 51.1534358,58.7307899 C57.6059133,53.2543462 63.1787072,48.5245792 67.0598849,43.868794 C71.3984472,38.6649534 73.4256175,33.7361934 73.4403983,28.3573093 C73.4545892,23.1322323 71.6671155,18.3162192 68.4075105,14.7962762 Z" id="Path" fill="url(#linearGradient-1)" fill-rule="nonzero" style="mix-blend-mode: multiply;" opacity="0.2" filter="url(#filter-2)" transform="translate(44.576150, 37.589051) rotate(24.000000) translate(-44.576150, -37.589051) "></path>
                        <path d="M65.3269651,14.8471017 C62.0199273,11.2842347 57.478506,9.32537097 52.5383022,9.33153186 C48.8455952,9.33616244 45.4623267,10.4998245 42.4822466,12.7899396 C41.6535365,13.4270084 40.5830278,14.4985203 39.2707207,16.0044754 L39.2691905,16.0031415 C38.6090714,16.7604148 37.8691876,17.4442686 37.0623798,18.0428346 C33.4742554,20.7018137 31.2340534,21.6892394 30.3405991,21.0035283 C27.3667627,18.7208558 26.8033082,18.1053429 23.1106012,18.1099589 C18.1703975,18.1161343 20.5812438,14.5461197 17.2652264,18.1172658 C13.9887949,21.6466771 12.7283879,23.424532 12.7218171,28.6448963 C12.7150541,34.0179452 11.6709981,36.7382422 15.9931258,41.9202349 C19.8596007,46.5555565 22.7638,49.5190314 29.2018457,54.9654558 C31.4001905,56.8254588 31.8693195,57.5023562 34.4566548,59.7481889 C35.1401741,60.3425617 35.2187967,65.8427113 36.1295277,65.841573 C37.0397707,65.840435 39.4183731,65.184375 41.831691,63.5123592 C44.6934565,61.5296459 45.9166417,60.5792904 48.120653,58.7128148 C54.5714522,53.2512483 60.1427968,48.5343303 64.0209532,43.8888429 C68.356139,38.6965129 70.378042,33.7756054 70.3845719,28.4020718 C70.3913758,23.1821922 68.5950102,18.3683321 65.3269651,14.8471017 Z" id="Path" fill="url(#linearGradient-3)" fill-rule="nonzero" style="mix-blend-mode: multiply;" opacity="0.3" filter="url(#filter-4)" transform="translate(41.495453, 37.586552) rotate(10.000000) translate(-41.495453, -37.586552) "></path>
                        <path d="M60.9561859,12.6056814 C57.6439285,9.03946646 53.0990329,7.07535874 48.1577402,7.07535874 C44.4642193,7.07535874 41.0816647,8.23453608 38.1038062,10.5204221 C37.2776707,11.1548124 36.2113688,12.2211993 34.9049007,13.7195829 L34.9043829,13.7191312 C34.2445346,14.4755246 33.505081,15.1585934 32.6988337,15.7565029 C29.1080965,18.4173948 26.8651826,19.4043654 25.969804,18.7170266 C22.9924337,16.4311406 22.4280792,15.8150591 18.7345583,15.8150591 C13.7932656,15.8150591 16.2001526,12.2488442 12.887895,15.8150591 C9.61517963,19.3395978 8.35673105,21.1154857 8.35673105,26.3346914 C8.35673105,31.7065479 7.31586801,34.4249406 11.6454791,39.6111929 C15.518648,44.2503253 18.427223,47.2167766 24.8735547,52.6700469 C27.0747291,54.5323874 27.5448145,55.2097219 30.1355516,57.4582933 C30.8199709,58.0533894 30.9055355,63.5524252 31.8164672,63.5524252 C32.7269109,63.5524252 35.1052153,62.8994825 37.5169639,61.2308511 C40.3768685,59.2521513 41.5991288,58.3035339 43.8012795,56.4402241 C50.2466348,50.9879231 55.8132777,46.2790074 59.6864466,41.6393905 C64.0160578,36.4536227 66.0322144,31.5363266 66.0322144,26.1639855 C66.0322144,20.9452644 64.2293896,16.1302201 60.9561859,12.6056814 Z" id="Path" fill="url(#linearGradient-5)" fill-rule="nonzero" style="mix-blend-mode: multiply;" opacity="0.4" filter="url(#filter-6)"></path>
                        <mask id="mask-9" fill="white">
                            <use xlink:href="#path-8"></use>
                        </mask>
                        <use id="Mask" fill="url(#radialGradient-7)" fill-rule="nonzero" xlink:href="#path-8"></use>
                        <mask id="mask-11" fill="white">
                            <use xlink:href="#path-10"></use>
                        </mask>
                        <use id="Mask" fill="#F97066" fill-rule="nonzero" xlink:href="#path-10"></use>
                        <path d="M17.8744742,7.07535874 C20.6010684,7.07535874 23.1582002,7.7070571 25.5079666,8.957392 L24.215805,9.64837806 C15.5919768,9.35818131 10.1594522,13.4451189 7.91823131,21.9091909 C5.6770104,30.3732629 12.1083399,43.2870185 27.2122199,60.6504576 L27.1513228,60.6220743 C25.4149459,59.1343058 23.753503,57.7286331 22.2323994,56.4416779 C15.7860678,50.9884077 10.219425,46.2790074 6.34625603,41.6398751 C2.01664493,36.4536227 0,31.5363266 0,26.1644701 C0,20.9452644 1.80282485,16.1302201 5.07554027,12.6056814 C7.96772282,9.49174945 11.8000847,7.5993212 16.0152568,7.16939492 L16.239,7.14835874 L16.259,7.14635874 L16.4380294,7.13128623 L16.293,7.14435874 L16.4946173,7.12744674 C16.5932918,7.1195196 16.6926699,7.11286292 16.7922386,7.10701328 C16.8571025,7.10339587 16.9221295,7.09988761 16.987243,7.09672997 C17.0262711,7.09472685 17.0648782,7.09299499 17.1035126,7.09138417 C17.358916,7.0807266 17.6161541,7.07535874 17.8744742,7.07535874 Z" id="Combined-Shape" fill="#FDC4C4" fill-rule="nonzero" style="mix-blend-mode: overlay;" filter="url(#filter-12)" mask="url(#mask-11)"></path>
                        <path d="M27.7968863,55.9347604 L31.5241341,58.4014328 C41.7070725,49.7922624 48.625624,40.9170783 52.2797885,31.7758806 C55.933953,22.6346828 56.8353136,14.8961027 54.9838703,8.56014023 L74.2778589,24.9562568 L68.8696954,54.0484815 L39.7094626,75.9583364 L21.950223,63.6975235 L27.7968863,55.9347604 Z" id="Path-5" fill="#E33147" style="mix-blend-mode: multiply;" opacity="0.333834694" filter="url(#filter-13)" mask="url(#mask-11)"></path>
                        <path d="M28.4546359,60.6504576 C29.8675795,61.6661463 31.4266897,62.0047091 33.1319665,61.6661463 C35.6898816,61.1583019 54.1068708,44.3268902 59.0765345,35.3307908 C62.3896437,29.3333912 63.1204766,22.8281473 61.2690332,15.8150591 L68.1388625,22.6346828 L65.5078641,52.1622026 L48.114041,64.4230154 L34.0089659,66.7445895 L26.2621372,64.4230154 L28.4546359,60.6504576 Z" id="Path-6" fill="#FDC4C4" style="mix-blend-mode: overlay;" opacity="0.7" filter="url(#filter-14)" mask="url(#mask-11)"></path>
                        <path d="M17.8744742,7.07535874 C21.5679952,7.07535874 24.9505497,8.23453608 27.9279201,10.5204221 C30.3255798,12.3612771 33.6604114,12.3611289 36.0574741,10.5204221 L35.9842442,10.5743587 L36.5668811,15.1621164 C35.2427838,19.0584346 33.7580424,21.0638925 32.1126569,21.1784901 L31.9626338,21.183699 C29.4047187,21.183699 27.2122199,17.3385921 24.215805,12.4052472 C22.3406181,9.31790979 19.6067645,7.57308884 16.0142442,7.17078437 C16.625873,7.10703266 17.2469813,7.07535874 17.8744742,7.07535874 Z" id="Combined-Shape" fill="#FDC4C4" fill-rule="nonzero" style="mix-blend-mode: overlay;" opacity="0.8" filter="url(#filter-15)" mask="url(#mask-11)"></path>
                    </g>
                </g>
            </g>
        </g>
    </g>
</svg>