<svg width="82" height="40" viewBox="0 0 82 40" xmlns="http://www.w3.org/2000/svg">
    <g fill="#012859" fill-rule="evenodd">
        <path d="M23.963 32.704h5.741l.031-23.297-3.894 2.34a3.846 3.846 0 0 0-1.85 3.294l-.028 17.663zM41.187 3.868c-.91 0-1.887.218-2.798.633h-.002c-.929.35-6.815 4.138-6.815 4.138v24.065h5.8V16.48c0-6.696 4.259-7.035 5.237-7.035.157 0 .255.005.418.014l6.123.353-4.386-4.408c-.993-1.005-2.147-1.536-3.577-1.536M17.315 21.29c0 3.519-2.631 6.933-7.291 6.933-3.554 0-6.582-2.674-4.788-6.386 2.217-4.586 9.628-.147 12.079-3.692v3.146zm4.795-7.775v-.032l.007-.033c-.071-2.676-1.095-4.901-2.967-6.436a8.602 8.602 0 0 0-2.583-1.438l.01-.018c-.13-.038-.256-.072-.383-.107-.352-.109-.712-.2-1.081-.27C3.658 2.618 2.386 12.216 2.29 13.153c.215-1.223.888-2.4 2.438-3.144 2.332-1.12 5.529-1 8.267-.609 3.417.488 5.221 2.774 4.444 4.916-2.63 3.064-8.351.503-12.004 2.087-1.893.53-3.494 1.648-4.5 3.93-3.133 7.11 2.106 12.388 8.312 12.388 2.78 0 5.136-.763 7.031-2.037 1.37-.79 2.546-1.808 3.382-2.989.617-.871 1.12-1.897 1.538-3.137.637-1.887.913-3.55.921-5.56.007-1.507.004-2.98 0-4.438 0-.348-.01-.697-.01-1.045zM28.76 8.724a.739.739 0 0 0 0-1.272l-1.855-1.086-1.843-1.078a.731.731 0 0 0-1.099.636v4.328c0 .568.611.922 1.099.636l1.843-1.078 1.854-1.086zM55.359 2.682 50.987 0v32.704h5.772V5.238c0-1.04-.53-2.006-1.4-2.556M79.614 10.884a2.338 2.338 0 0 0-3.383 1.198l-4.12 10.997-4.655-10.866a9.373 9.373 0 0 0-3.726-4.308l-5.22-3.19 10.746 25.941c-1.026 3.214-1.66 4.177-3.803 4.177h-6.705l5.2 4.108c.914.738 1.835 1.059 3.317 1.059v-.014c2.735 0 4.812-1.63 5.828-4.24L82 12.344l-2.386-1.46z"/>
    </g>
</svg>
